<?xml version="1.0" encoding="UTF-8" standalone="no"?>
<!DOCTYPE svg PUBLIC "-//W3C//DTD SVG 1.1//EN" "http://www.w3.org/Graphics/SVG/1.1/DTD/svg11.dtd">
<!-- Created with Vectornator (http://vectornator.io/) -->
<svg height="100%" stroke-miterlimit="10" style="fill-rule:nonzero;clip-rule:evenodd;stroke-linecap:round;stroke-linejoin:round;" version="1.1" viewBox="0 0 400 119.87" width="100%" xml:space="preserve" xmlns="http://www.w3.org/2000/svg" xmlns:vectornator="http://vectornator.io" xmlns:xlink="http://www.w3.org/1999/xlink">
<defs/>
<g id="레이어-1" vectornator:layerName="레이어 1">
<g fill="#dfdee9" opacity="1" stroke="none" vectornator:layerName="Text 1">
<path d="M117.893 57.7936L117.893 79.3269L106.793 79.3269L106.793 34.1269L117.893 34.1269L117.893 53.9269L136.06 53.9269L136.06 34.1269L147.06 34.1269L147.06 79.3269L136.06 79.3269L136.06 57.7936L117.893 57.7936Z"/>
<path d="M173.06 80.0936C170.637 80.0936 168.36 79.6436 166.226 78.7436C164.093 77.8436 162.237 76.6325 160.66 75.1103C159.082 73.5881 157.832 71.8214 156.91 69.8103C155.987 67.7992 155.526 65.6714 155.526 63.4269C155.526 60.7381 155.949 58.2436 156.793 55.9436C157.637 53.6436 158.837 51.6492 160.393 49.9603C161.949 48.2714 163.81 46.9547 165.976 46.0103C168.143 45.0658 170.56 44.5936 173.226 44.5936C175.604 44.5936 177.782 44.9714 179.76 45.7269C181.737 46.4825 183.432 47.5158 184.843 48.8269C186.254 50.1381 187.349 51.6825 188.126 53.4603C188.904 55.2381 189.293 57.1381 189.293 59.1603L165.66 59.1603C165.749 61.0492 166.032 62.8492 166.51 64.5603C166.987 66.2714 167.626 67.7769 168.426 69.0769C169.226 70.3769 170.165 71.4103 171.243 72.1769C172.321 72.9436 173.515 73.3269 174.826 73.3269C175.96 73.3269 177.076 73.1325 178.176 72.7436C179.276 72.3547 180.293 71.8214 181.226 71.1436C182.16 70.4658 182.971 69.6769 183.66 68.7769C184.349 67.8769 184.849 66.9047 185.16 65.8603L190.426 66.6936C189.893 68.5381 189.043 70.2714 187.876 71.8936C186.71 73.5158 185.343 74.9381 183.776 76.1603C182.21 77.3825 180.504 78.3436 178.66 79.0436C176.815 79.7436 174.949 80.0936 173.06 80.0936ZM177.426 55.6269C177.337 54.6269 177.121 53.7103 176.776 52.8769C176.432 52.0436 175.993 51.3269 175.46 50.7269C174.926 50.1269 174.304 49.6658 173.593 49.3436C172.882 49.0214 172.115 48.8603 171.293 48.8603C170.649 48.8603 170.015 49.0214 169.393 49.3436C168.771 49.6658 168.21 50.1214 167.71 50.7103C167.21 51.2992 166.787 52.0103 166.443 52.8436C166.099 53.6769 165.871 54.6047 165.76 55.6269L177.426 55.6269Z"/>
<path d="M208.193 79.3269L197.893 79.3269L197.893 31.5936L205.093 27.7936L208.193 27.7936L208.193 79.3269Z"/>
<path d="M228.326 79.3269L218.026 79.3269L218.026 31.5936L225.226 27.7936L228.326 27.7936L228.326 79.3269Z"/>
<path d="M254.893 79.9603C252.182 79.9603 249.676 79.5158 247.376 78.6269C245.076 77.7381 243.087 76.5158 241.41 74.9603C239.732 73.4047 238.421 71.5769 237.476 69.4769C236.532 67.3769 236.06 65.1047 236.06 62.6603C236.06 60.0381 236.532 57.6214 237.476 55.4103C238.421 53.1992 239.726 51.2936 241.393 49.6936C243.06 48.0936 245.043 46.8436 247.343 45.9436C249.643 45.0436 252.149 44.5936 254.86 44.5936C257.571 44.5936 260.082 45.0325 262.393 45.9103C264.704 46.7881 266.699 47.9936 268.376 49.5269C270.054 51.0603 271.371 52.8658 272.326 54.9436C273.282 57.0214 273.76 59.2603 273.76 61.6603C273.76 64.1714 273.287 66.5381 272.343 68.7603C271.399 70.9825 270.087 72.9214 268.41 74.5769C266.732 76.2325 264.737 77.5436 262.426 78.5103C260.115 79.4769 257.604 79.9603 254.893 79.9603ZM256.093 75.7936C257.026 75.7936 257.893 75.4881 258.693 74.8769C259.493 74.2658 260.187 73.4436 260.776 72.4103C261.365 71.3769 261.821 70.1825 262.143 68.8269C262.465 67.4714 262.626 66.0603 262.626 64.5936C262.626 62.4158 262.465 60.3658 262.143 58.4436C261.821 56.5214 261.293 54.8381 260.56 53.3936C259.826 51.9492 258.876 50.8047 257.71 49.9603C256.543 49.1158 255.115 48.6936 253.426 48.6936C252.604 48.6936 251.815 48.9936 251.06 49.5936C250.304 50.1936 249.637 50.9992 249.06 52.0103C248.482 53.0214 248.021 54.1881 247.676 55.5103C247.332 56.8325 247.16 58.2269 247.16 59.6936C247.16 61.8936 247.365 63.9714 247.776 65.9269C248.187 67.8825 248.776 69.5881 249.543 71.0436C250.31 72.4992 251.243 73.6547 252.343 74.5103C253.443 75.3658 254.693 75.7936 256.093 75.7936Z"/>
<path d="M295.16 34.1269L306.26 34.1269L306.26 67.3603C306.26 69.2047 305.921 70.8992 305.243 72.4436C304.565 73.9881 303.549 75.3158 302.193 76.4269C300.837 77.5381 299.143 78.4103 297.11 79.0436C295.076 79.6769 292.704 79.9936 289.993 79.9936C288.482 79.9936 287.082 79.8603 285.793 79.5936C284.504 79.3269 283.304 78.9769 282.193 78.5436C281.082 78.1103 280.037 77.6214 279.06 77.0769C278.082 76.5325 277.149 75.9714 276.26 75.3936L279.393 71.4269C279.86 71.8936 280.426 72.3603 281.093 72.8269C281.76 73.2936 282.499 73.7158 283.31 74.0936C284.121 74.4714 284.993 74.7825 285.926 75.0269C286.86 75.2714 287.826 75.3936 288.826 75.3936C290.782 75.3936 292.326 74.8825 293.46 73.8603C294.593 72.8381 295.16 71.4603 295.16 69.7269L295.16 34.1269Z"/>
<path d="M333.593 79.9603C330.882 79.9603 328.376 79.5158 326.076 78.6269C323.776 77.7381 321.787 76.5158 320.11 74.9603C318.432 73.4047 317.121 71.5769 316.176 69.4769C315.232 67.3769 314.76 65.1047 314.76 62.6603C314.76 60.0381 315.232 57.6214 316.176 55.4103C317.121 53.1992 318.426 51.2936 320.093 49.6936C321.76 48.0936 323.743 46.8436 326.043 45.9436C328.343 45.0436 330.849 44.5936 333.56 44.5936C336.271 44.5936 338.782 45.0325 341.093 45.9103C343.404 46.7881 345.399 47.9936 347.076 49.5269C348.754 51.0603 350.071 52.8658 351.026 54.9436C351.982 57.0214 352.46 59.2603 352.46 61.6603C352.46 64.1714 351.987 66.5381 351.043 68.7603C350.099 70.9825 348.787 72.9214 347.11 74.5769C345.432 76.2325 343.437 77.5436 341.126 78.5103C338.815 79.4769 336.304 79.9603 333.593 79.9603ZM334.793 75.7936C335.726 75.7936 336.593 75.4881 337.393 74.8769C338.193 74.2658 338.887 73.4436 339.476 72.4103C340.065 71.3769 340.521 70.1825 340.843 68.8269C341.165 67.4714 341.326 66.0603 341.326 64.5936C341.326 62.4158 341.165 60.3658 340.843 58.4436C340.521 56.5214 339.993 54.8381 339.26 53.3936C338.526 51.9492 337.576 50.8047 336.41 49.9603C335.243 49.1158 333.815 48.6936 332.126 48.6936C331.304 48.6936 330.515 48.9936 329.76 49.5936C329.004 50.1936 328.337 50.9992 327.76 52.0103C327.182 53.0214 326.721 54.1881 326.376 55.5103C326.032 56.8325 325.86 58.2269 325.86 59.6936C325.86 61.8936 326.065 63.9714 326.476 65.9269C326.887 67.8825 327.476 69.5881 328.243 71.0436C329.01 72.4992 329.943 73.6547 331.043 74.5103C332.143 75.3658 333.393 75.7936 334.793 75.7936Z"/>
<path d="M361.093 31.5936L368.393 27.7936L371.493 27.7936L371.493 47.5603C372.826 46.6936 374.282 45.9825 375.86 45.4269C377.437 44.8714 378.96 44.5936 380.426 44.5936C382.56 44.5936 384.526 44.9992 386.326 45.8103C388.126 46.6214 389.682 47.7214 390.993 49.1103C392.304 50.4992 393.326 52.1158 394.06 53.9603C394.793 55.8047 395.16 57.7603 395.16 59.8269C395.16 61.6492 394.926 63.4103 394.46 65.1103C393.993 66.8103 393.332 68.4047 392.476 69.8936C391.621 71.3825 390.593 72.7492 389.393 73.9936C388.193 75.2381 386.86 76.2992 385.393 77.1769C383.926 78.0547 382.354 78.7381 380.676 79.2269C378.999 79.7158 377.249 79.9603 375.426 79.9603C372.737 79.9603 370.165 79.5992 367.71 78.8769C365.254 78.1547 363.049 77.0047 361.093 75.4269L361.093 31.5936ZM371.493 73.1603C371.849 73.4714 372.215 73.7714 372.593 74.0603C372.971 74.3492 373.371 74.6047 373.793 74.8269C374.215 75.0492 374.671 75.2269 375.16 75.3603C375.649 75.4936 376.182 75.5603 376.76 75.5603C377.915 75.5603 378.965 75.2103 379.91 74.5103C380.854 73.8103 381.665 72.8436 382.343 71.6103C383.021 70.3769 383.543 68.9214 383.91 67.2436C384.276 65.5658 384.46 63.7603 384.46 61.8269C384.46 60.3825 384.271 59.0214 383.893 57.7436C383.515 56.4658 382.999 55.3436 382.343 54.3769C381.687 53.4103 380.915 52.6492 380.026 52.0936C379.137 51.5381 378.193 51.2603 377.193 51.2603C376.237 51.2603 375.237 51.5436 374.193 52.1103C373.149 52.6769 372.249 53.3936 371.493 54.2603L371.493 73.1603Z"/>
</g>
<path d="M12.1067 81.2547L22.6102 58.6542L31.1701 40.2359C32.7121 36.918 31.3964 33.036 28.2315 31.5651L28.2315 31.5651C25.0665 30.0941 21.2508 31.5914 19.7088 34.9093L0.645402 75.928C-0.896576 79.2459 0.419103 83.128 3.58405 84.5989L3.58405 84.5989C6.749 86.0698 10.5647 84.5725 12.1067 81.2547Z" fill="#4a52f0" fill-rule="nonzero" opacity="1" stroke="none" vectornator:layerName="곡선 22"/>
<path d="M70.4385 51.2046L25.2203 52.3245C21.5627 52.4151 18.6677 55.3169 18.7541 58.8059L18.7541 58.8059C18.8406 62.2949 21.8756 65.0499 25.5332 64.9593L70.7514 63.8394C74.409 63.7488 77.304 60.847 77.2176 57.358L77.2176 57.358C77.1312 53.869 74.0961 51.1141 70.4385 51.2046Z" fill="#a4b4ff" fill-rule="nonzero" opacity="1" stroke="none" vectornator:layerName="곡선 23"/>
<path d="M42.6126 81.2547L61.676 40.2359C63.218 36.918 61.9023 33.036 58.7373 31.5651L58.7373 31.5651C55.5724 30.0941 51.7567 31.5914 50.2147 34.9093L31.1513 75.928C29.6093 79.2459 30.925 83.128 34.0899 84.5989L34.0899 84.5989C37.2549 86.0698 41.0706 84.5725 42.6126 81.2547Z" fill="#7acfc9" fill-rule="nonzero" opacity="1" stroke="none" vectornator:layerName="곡선 24"/>
<path d="M73.1185 81.2547L92.1819 40.2359C93.7238 36.918 92.4082 33.036 89.2432 31.5651L89.2432 31.5651C86.0783 30.0941 82.2625 31.5914 80.7206 34.9093L61.6572 75.928C60.1152 79.2459 61.4309 83.128 64.5958 84.5989L64.5958 84.5989C67.7608 86.0698 71.5765 84.5725 73.1185 81.2547Z" fill="#ad57f6" fill-rule="nonzero" opacity="1" stroke="none" vectornator:layerName="곡선 25"/>
<path d="M91.5225 8.187C91.5225 3.69143 95.1507 0.0470493 99.6263 0.0470493C104.102 0.0470493 107.73 3.69143 107.73 8.187C107.73 12.6826 104.102 16.3269 99.6263 16.3269C95.1507 16.3269 91.5225 12.6826 91.5225 8.187Z" fill="#a4b4ff" fill-rule="nonzero" opacity="1" stroke="none" vectornator:layerName="타원 5"/>
</g>
</svg>
